<?xml version="1.0" encoding="UTF-8"?>
<svg enable-background="new 11.55 3.558 181.9 179.566" version="1.1" viewBox="11.55 3.558 181.9 179.57" xml:space="preserve" xmlns="http://www.w3.org/2000/svg">
<title>Frapuu</title>
<g>
<path d="m57.146 118.06c-1.292-2.388-2.708-4.842-4.087-7.048 1.187 2.459 2.554 4.814 4.087 7.048" fill="#005683"/>
<path d="m149.71 71.793c-8.026-7.191-13.562-11.609-21.517-13.254-5.347-1.104-11.737 0.309-17.363 1.556-4.27 0.947-7.955 1.766-10.828 1.464-4.402-0.461-7.896-2.777-8.891-5.902-0.699-2.201-0.512-5.728 4.392-10.042 2.04-1.794 4.484-3.294 7.156-4.51-3.862 7e-3 -7.668-0.737-11.333-2.678-4.737 6.568-16.748 11.328-20.444 9.686-0.821-0.367-1.741-0.991-2.581-1.864-0.082 0.059-0.154 0.131-0.236 0.192 0.973 0.914 1.682 2.188 1.99 3.688 0.628 3.031-0.434 6.272-2.839 8.671-2.091 2.091-4.721 3.284-7.225 3.284-1.743 0-3.24-0.604-4.356-1.667-4.941 8.049-7.813 17.499-7.813 27.639 0 4.723 0.634 9.288 1.789 13.647 4.962 4.086 13.137 20.327 14.921 24.399 0.101 0.227 0.21 0.507 0.321 0.832 8.505 7.864 19.585 12.979 31.844 13.925-0.154-2.024-0.082-4.182-0.01-6.316 0.082-2.613 0.176-5.314-0.166-7.532-0.28-1.826-0.755-3.786-1.249-5.857-1.848-7.737-3.95-16.502 3.45-21.43 1.42-0.947 2.961-1.425 4.58-1.425 6.65 0 12.69 8.011 15.81 14.107 4.248-6.872 11.223-11.23 19.527-12.072 4.203-0.421 8.393 0.121 11.85 1.397 1.034 0.935 2.234 1.74 3.279 1.86 3.696 0.43 2.377-11.565 2.377-15.185-2e-3 -3.481 1.67-13.165-6.435-16.613" fill="#FFD200"/>
<path d="m117.77 120.23c-0.02-0.066-0.03-0.128-0.045-0.187-0.142-0.571-0.302-1.16-0.479-1.766-1.485-5.347-8.549-15.978-13.945-15.978-0.828 0-1.604 0.248-2.36 0.754-4.729 3.148-3.77 8.841-1.778 17.171 0.496 2.058 1.008 4.194 1.31 6.18 0.402 2.59 0.302 5.478 0.207 8.274-0.142 4.341-0.29 8.83 1.58 10.767 0.821 0.844 2.096 1.254 3.906 1.254 0.522 0 1.013-0.037 1.492-0.1 0.142-0.016 0.28-0.044 0.418-0.066 0.335-0.054 0.653-0.121 0.962-0.197 0.136-0.037 0.274-0.077 0.407-0.114 0.325-0.101 0.632-0.209 0.924-0.337 0.091-0.037 0.184-0.066 0.266-0.105 0.379-0.176 0.743-0.369 1.081-0.578 0.035-0.016 0.066-0.042 0.101-0.066 0.297-0.19 0.583-0.396 0.853-0.609 0.077-0.062 0.154-0.128 0.23-0.194 0.22-0.185 0.43-0.379 0.634-0.575 0.066-0.066 0.133-0.132 0.197-0.204 0.227-0.236 0.435-0.479 0.634-0.72 0.028-0.033 0.049-0.06 0.072-0.089 0.226-0.28 0.423-0.559 0.617-0.847 0.044-0.072 0.082-0.138 0.126-0.203 0.132-0.21 0.258-0.425 0.38-0.632 0.054-0.1 0.112-0.198 0.165-0.302 0.087-0.173 0.178-0.341 0.26-0.517 0.047-0.106 0.104-0.215 0.154-0.321 0.066-0.149 0.125-0.292 0.185-0.434 0.128-0.304 0.237-0.594 0.332-0.857 5e-3 -0.016 0.018-0.033 0.018-0.044 0.066-0.19 0.126-0.374 0.182-0.545 0.226-0.737 0.332-1.254 0.346-1.341 0.01-0.089 0.033-0.177 0.061-0.259 1.495-4.742 2.101-8.734 0.88-14.608-0.114-0.521-0.238-1.062-0.373-1.605" fill="#FFD200"/>
<path d="m165.87 16.394c-5.971 0-14.524-0.049-19.83-0.481-0.461-0.037-0.875-0.037-1.139-0.016 0.391 0.638 1.354 1.761 2.884 3.036l0.384 0.325c10.427 8.882 18.271 10.748 23.012 10.748 1.701 0 3.34-0.234 4.882-0.695 7.322-2.196 11.818-6.734 13.584-10.245 0.66-1.31 0.798-2.173 0.798-2.58-1.004-0.1-3.588-0.148-7.726-0.148-2.197 0-4.697 0.01-7.359 0.029-3.025 0.013-6.262 0.027-9.49 0.027" fill="#f80"/>
<path d="m36.043 104.04c-1.513 1.86-2.019 4.474-1.42 7.368 1.53 7.382 14.657 21.704 23.548 23.833 0.681 0.166 1.298 0.248 1.832 0.248 1.384 0 1.901-0.545 2.173-0.952 1.081-1.656 0.468-5.265-0.399-7.23-2.459-5.623-10.259-20.367-14.205-23.4-1.986-1.526-4.121-2.337-6.184-2.337-2.148 2e-3 -4.054 0.882-5.345 2.47" fill="#FFD200"/>
<path d="m56.629 56.128c0.463 2.444 2.085 2.956 3.361 2.956 1.689 0 3.595-0.898 5.106-2.412 1.684-1.682 2.438-3.906 2.019-5.946-0.258-1.265-0.952-2.232-1.848-2.59-0.148-0.061-0.351-0.094-0.589-0.094-1.61 0-4.561 1.452-6.514 3.803-0.711 0.855-1.858 2.555-1.535 4.283" fill="#FFD200"/>
<path d="m148.86 135.82c-2.999 1.793-5.938 3.221-8.758 4.337-9.249 16.917-29.351 29.919-46.791 30.247-9.006 0.148-15.985-3.244-19.775-9.618-4.253-7.146-10.751-9.787-14.977-8.701-2.833 0.729-4.454 3.092-4.571 6.652-0.104 3.125 2.657 7.289 7.378 11.144 8.484 6.932 23.047 12.511 36.443 9.339 23.161-5.481 43.964-23.374 51.051-43.4" fill="#f80"/>
<path d="m55.482 40.206c-0.138 0.035-0.182 0.077-0.182 0.077 0.011 0 0.098 0.167 0.432 0.393 0.606 0.407 3.088 1.562 9.796-0.226-0.204-1.558-0.125-3.499 0.55-5.805-3.925 2.728-8.347 5.063-10.596 5.561" fill="#f80"/>
<path d="m59.99 62.081c-3.267 0-5.682-2.068-6.308-5.404-0.409-2.173 0.363-4.566 2.173-6.748 2.354-2.828 6.063-4.886 8.825-4.886 0.623 0 1.193 0.106 1.7 0.302 1.837 0.737 3.214 2.526 3.677 4.783 0.627 3.031-0.435 6.272-2.84 8.671-2.093 2.089-4.722 3.282-7.227 3.282zm4.688-14.039c-1.61 0-4.561 1.452-6.514 3.803-0.711 0.856-1.86 2.558-1.535 4.285 0.463 2.444 2.085 2.956 3.361 2.956 1.689 0 3.595-0.898 5.106-2.413 1.684-1.682 2.438-3.906 2.019-5.946-0.258-1.265-0.952-2.233-1.848-2.59-0.149-0.064-0.351-0.095-0.589-0.095z"/>
<path d="m60.004 138.48c-0.772 0-1.625-0.11-2.531-0.323-10.146-2.439-24.034-17.662-25.788-26.146-0.786-3.796-0.066-7.3 2.03-9.871 1.85-2.272 4.65-3.577 7.675-3.577 2.727 0 5.497 1.023 8.014 2.96 4.938 3.796 13.315 20.446 15.125 24.57 0.753 1.722 2.247 6.879 0.154 10.081-0.686 1.052-2.061 2.306-4.679 2.306zm-18.614-36.915c-2.15 0-4.056 0.88-5.347 2.47-1.513 1.86-2.019 4.473-1.42 7.368 1.53 7.382 14.657 21.704 23.548 23.833 0.681 0.166 1.298 0.248 1.832 0.248 1.384 0 1.901-0.545 2.173-0.952 1.081-1.656 0.468-5.265-0.399-7.23-2.459-5.623-10.259-20.368-14.205-23.4-1.984-1.528-4.119-2.337-6.182-2.337z"/>
<path d="m164.42 42.578c-1.673-4.735-3.738-9.052-6.126-12.924-3.581-1.745-7.614-4.325-12.058-8.11l-0.363-0.307c-4.912-4.093-4.236-5.958-4.016-6.575 0.182-0.494 0.494-0.88 0.929-1.167-6.662-4.264-14.309-6.652-22.666-6.905-20.764-0.628-38.966 8.204-48.692 23.624-2.657 4.215-3.575 8.049-2.657 11.087 0.678 2.211 2.217 3.57 3.334 4.066 1.887 0.842 13.913-3.329 17.409-9.679 0.201-0.358 0.538-0.624 0.933-0.725 0.396-0.104 0.819-0.045 1.167 0.169 8.208 5.045 17.428 2.741 25.428 0.184 0.792-0.25 1.633 0.182 1.887 0.975 0.132 0.423 0.066 0.856-0.144 1.216 5.288-0.138 10.593 0.666 15.264 2.508 0.77 0.302 1.151 1.177 0.847 1.948-0.31 0.771-1.176 1.149-1.948 0.842-11.499-4.535-27.075-2.311-35.456 5.062-2.879 2.529-4.129 4.973-3.518 6.877 0.624 1.96 3.174 3.499 6.346 3.836 2.388 0.248 6.016-0.557 9.862-1.408 5.923-1.316 12.641-2.807 18.624-1.569 9.689 2.003 16.121 7.813 25.847 16.61l1.189 1.073c0.609 0.557 0.658 1.503 0.104 2.121-0.298 0.32-0.707 0.489-1.112 0.489-0.341 0-0.676-0.124-0.952-0.355 0.957 4.081 1.45 7.917 1.45 12.16 0 5.083-0.706 10.463-2.085 15.305 1.544 0.875 2.844 1.925 3.773 3.125 0.506 0.655 0.391 1.601-0.269 2.101-0.648 0.507-1.597 0.392-2.103-0.267-2.589-3.35-9.193-5.305-15.71-4.644-4.743 0.48-13.398 2.749-18.299 12.488 0.187 0.494 0.34 0.964 0.456 1.364 2.571 8.809 1.967 14.152 0.019 20.341-0.188 1.045-0.562 2.289-1.113 3.588 6.601 0.016 18.256-1.43 30.651-9.965 23.478-16.159 21.41-66.979 13.768-88.559" fill="#FFD200"/>
<path d="m88.16 27.75c-2.388 1.789-1.666 4 0.998 4.33 2.669 0.337 2.875 0.512 5.335-1.329 2.669-2.004 3.001-5.331 0-5.003-2.997 0.335-5.002 1.001-6.333 2.002"/>
<path d="m81.156 29.081c0 1.656-1.341 2.999-2.998 2.999-1.656 0-3.004-1.343-3.004-2.999s1.349-2.998 3.004-2.998c1.656 0 2.998 1.342 2.998 2.998"/>
<path d="m115.83 20.752c0 1.658-1.343 2.999-3.006 2.999-1.656 0-2.998-1.341-2.998-2.999 0-1.656 1.341-3 2.998-3 1.663 1e-3 3.006 1.344 3.006 3"/>
</g>
<path d="m16.23 109.11c-5.955 16.249 0.794 33.933 15.087 39.496 14.289 5.567 30.699-3.097 36.658-19.345 5.957-16.245-0.796-33.922-15.087-39.489-14.286-5.56-30.7 3.095-36.658 19.338zm41.045 15.986c-3.493 9.532-13.118 14.606-21.499 11.347-8.383-3.261-12.343-13.635-8.848-23.164 3.496-9.53 13.12-14.605 21.501-11.343 8.383 3.268 12.34 13.632 8.846 23.16z" fill="#CCD8EA"/>
<path d="m43.565 151.93c-4.426 0.54-8.758 0-12.882-1.607-15.188-5.913-22.423-24.698-16.13-41.869 4.388-11.973 14.629-20.607 26.086-22.008 4.423-0.538 8.755 2e-3 12.881 1.606 15.19 5.92 22.429 24.701 16.13 41.86-4.39 11.978-14.628 20.619-26.085 22.018zm-2.488-61.836c-10.147 1.238-19.242 8.959-23.169 19.665-5.601 15.277 0.697 31.933 14.035 37.126 3.574 1.396 7.338 1.86 11.179 1.389 10.147-1.235 19.241-8.958 23.167-19.669 5.604-15.269-0.693-31.921-14.037-37.121-3.571-1.388-7.33-1.858-11.175-1.39zm1.975 49.05c-2.716 0.334-5.377-3e-3 -7.906-0.987-4.536-1.763-8.054-5.417-9.915-10.285-1.833-4.802-1.825-10.217 0.022-15.249 2.67-7.284 8.912-12.541 15.901-13.396 2.712-0.332 5.373 2e-3 7.904 0.988 9.291 3.621 13.733 15.077 9.894 25.536-2.669 7.283-8.912 12.541-15.9 13.393zm-1.461-36.268c-5.682 0.699-10.778 5.034-12.985 11.055-1.536 4.18-1.548 8.664-0.041 12.619 1.483 3.88 4.268 6.783 7.834 8.171 1.991 0.774 4.075 1.027 6.211 0.773 5.684-0.694 10.778-5.031 12.987-11.049 3.139-8.569-0.36-17.89-7.799-20.795-1.987-0.771-4.072-1.035-6.207-0.774z"/>
<path d="m157.16 82.394-6.467-2.694s-19.915-30.899-45.096-41.356c-25.776-10.7-41.566 5.381-41.566 5.381l-15.023-6.232c-5.882-4.743-1.975-13.484-5.105-14.616-3.027-1.101-10.923 7.616-22.783 37.695-11.398 28.916-7.742 33.826-4.535 35.075 2.635 1.021 9.779-0.388 9.779-0.388l15.017 6.232s-0.25 24.59 25.61 35.325c25.182 10.454 61.058 0.65 61.058 0.65l6.468 2.69s7.606-3.019 16.481-25.665c9.606-24.497 6.162-32.097 6.162-32.097z" fill="#CCD8EA"/>
<path d="m35.745 100.6c-0.384-0.856-3.511-8.981 5.398-31.707 9.612-24.535 17.372-28.203 18.227-28.542l1.303 3.434c-0.037 0.016-7.186 3.469-16.201 26.486-8.332 21.247-5.49 28.751-5.461 28.82l-3.266 1.509z" fill="#001FD4"/>
<path d="m27.97 97.371c-0.387-0.852-3.511-8.984 5.397-31.714 9.605-24.533 17.367-28.2 18.224-28.536l1.298 3.434c-0.032 0.014-7.181 3.467-16.199 26.482-8.327 21.249-5.484 28.755-5.453 28.831l-3.267 1.503z" fill="#001FD4"/>
<path d="m128.95 139.29-1.34-3.416c0.071-0.031 7.18-3.403 15.508-24.649 9.025-23.016 6.216-30.612 6.179-30.687l3.269-1.501c0.386 0.858 3.501 9.035-6.122 33.57-8.908 22.723-16.642 26.349-17.494 26.683z" fill="#001FD4"/>
<path d="m144.09 76.087c-1.036 4.104 2.247 6.636 3.441 8.117 1.68 1.771-3.474 3.66-4.809-4.658 0.153-3.5-2.51 1.414 2.488 8.612 0.705 1.017 1.132 3.462-0.487 4.309-1.83 0.354-2.508-1.864-2.824-3.132-0.571-2.401-0.414-4.524-0.899-7.164 0.045-4.875-1.535 2.25-1.532 6.86-0.01 3.347 0.539 6.646 0.473 9.996-0.024 1.067-0.352 3.033-1.934 3.313-1.825 0.269-2.636-1.363-2.769-2.336-0.308-2.187-0.099-4.603 0.352-6.847 0.618-3.04 1.655-5.998 2.838-10.151-6.509 5.749-15.385 20.107-9.4 21.268 1.624-0.036 0.81-2.278 3.43-3.086 1.938-0.155 2.857 3.418 1.737 5.61-4.882 9.582-12.918 0.588-12.52-2.146-4.362 10.221 1.875 8.113 3.713 10.167 2.07 3.264-1.946 8.22-6.05 6.387-3.152-1.403-4.178-4.417-4.111-6.467 0.164-4.876 2.412-9.602 5.195-14.107-2.835 3.297-6.029 9.05-8.593 12.597-0.855 1.187-2.249 3.091-3.96 2.365-2.086-1.552-0.229-4.166 0.661-5.25 2.431-2.952 16.383-16.18 20.014-19.326-22.664 15.414-33.512-7.096-27.959-18.328 3.331-6.74 11.93-7.649 16.205-2.175 1.94 2.477 2.083 5.272 0.373 8.016-1.677 2.687-3.27 1.081-5.502 0.378-4.139-1.319-6.211 9.593 1.32 12.206 10.622 3.684 17.756-7.397 19.765-9.433-3.605 1.716-6.947 2.394-8.828 1.777-1.583-0.514-3.647-1.473-3.093-3.423 0.495-2.157 3.677-0.834 5.369-0.413 5.851 1.464 10.395-1.905 10.602-2.482-8.526 0.4-15.719-2.262-19.566-8.994-0.67-1.152-1.326-2.977-0.887-4.293 0.852-2.175 3.411-0.786 4.263-0.03 1.501 1.333 2.296 3.61 3.415 5.441 4.128 6.778 10.908 7.067 15.116 5.12-3.51-0.555-7.044-2.265-8.953-4.439-0.756-0.856-1.586-2.855-0.697-4.247 0.881-1.155 2.795 0.398 3.451 1.418 5.334 8.318 9.713 4.174 9.713 4.174l3.536 4.041c-1e-3 -5e-3 -1.095-1.413-2.097 0.755zm-106.05 23.831c9.155-2.965 6.88 2.218 8.413 7.186 1.904 6.161 4.067 5.863 10.082 3.207-4.894-0.617-8.725-3.682-6.42-6.653 3.353-1.371-1.516 4.712 10.676 5.482 3.949 0-2.538-2.951-3.864-4.145-12.427-11.122-5.234-20.978-2.272-18.765 1.238 0.923 0.381 3.779 0.241 5.446-0.659 7.686 5.347 14.503 11.234 14.965 2.066 0.027 2.081-0.764-7e-3 -1.742-8.205-3.81-10.042-11.367-8.235-19.941 1.242-5.911 5.114-10.505 11.163-9.808 8.427 0.967 12.394 9.208 8.005 16.734-1.925 3.305-4.871 4.7-7.986 3.751-3.164-0.963 0.061-4.734-1.694-6.888-4.089-5.016-10.723 11.326 10.509 16.364 4.441 1.052 9.102 1.003 13.94 1.545-26.321 9.052-20.357 19.073-23.027 20.595-6.34 3.625-9.673-7.334-2.549-12.094 2.717-1.818 5.906-2.557 8.876-3.8 2.712-1.291 2.317-1.539-0.165-1.157-5.527 1.302-11.059 2.563-16.581 3.933-4.174 1.024-8.153 6.356-5.58 9.857l-1.305 3.041-13.454-27.113z" fill="#001FD4"/>
<path d="m108.05 106.64c-4.137 2.854-13.319 10.058-14.617 14.703-1.035 3.686 4.808 7.834 8.305 0.535 3.129-6.544 9.349-0.019 6.587 5.697-7.668 15.84-20.822 5.323-20.224-1.802 0.885-10.402 14.75-16.757 19.42-20.062 1.24-0.592 2.329-0.592 0.529 0.929z" fill="#001FD4"/>
<path d="m106.77 97.711c-29.084 1.404-22.161-22.947-17.596-27.202 1.154-1.068 2.871-2.089 4.331-1.973 4.031 0.322 1.353 7.958 0.815 9.478-4.389 12.549 10.114 18.881 12.45 19.697z" fill="#001FD4"/>
<path d="m80.715 133.38c-2.796 1.839-6.25 0.276-7.598-3.175-1.212-3.098 1.26-8.488 5.071-11.337 6.502-4.843 24.954-13.826 28.459-14.422-5.621 3.073-16.631 11.418-18.534 12.846-13.035 9.784-3.94 12.08-7.398 16.088z" fill="#001FD4"/>
<path d="m104.17 100.94c-9.605 5.178-29.762 5.941-25.19-7.937 1.195-3.623 4.816-3.829 5.456-0.655 1.879 9.379 14.899 8.802 19.734 8.592z" fill="#001FD4"/>
<path d="m134.52 140.16-6.592-0.758c-2.151 0.551-9.9 2.408-20.064 3.422-11.47 1.144-27.984 1.326-41.536-4.297-13.925-5.785-20.454-15.518-23.481-22.669-2.459-5.813-3.061-10.837-3.209-13.105l-13.461-5.586c-0.747 0.132-2.198 0.369-3.805 0.531-2.982 0.296-5.08 0.19-6.415-0.327-1.628-0.635-2.817-1.811-3.536-3.485-1.419-3.327-2.237-10.474 7.04-34.001 5.603-14.219 16.114-38.178 23.538-38.914 0.523-0.053 1.03 9e-3 1.497 0.173 2.482 0.9 2.58 3.663 2.671 6.333 0.098 2.922 0.21 6.212 2.765 8.418l13.729 5.699c2.419-2.096 9.595-7.462 20.621-8.558 7.104-0.711 14.501 0.506 21.982 3.606 23.982 9.962 42.868 37.438 45.61 41.572l6.614 2.753 0.296 0.656c0.387 0.853 3.492 9.037-6.12 33.56-8.91 22.731-16.229 24.572-17.08 24.906l-1.064 0.071zm-6.357-4.623 6.227 2.59c1.831-1.245 7.959-6.493 14.953-24.324 7.581-19.347 6.803-27.796 6.343-30.039l-6.178-2.572-0.306-0.475c-0.199-0.305-19.912-30.546-44.271-40.665-6.939-2.881-13.763-4.01-20.291-3.359-12.147 1.211-19.275 8.274-19.344 8.341l-0.835 0.848-16.553-6.944c-4.048-3.255-4.217-8.125-4.324-11.344-0.037-1.075-0.094-2.692-0.357-3.044 0.065 0.087-6.412 1.139-20.442 36.722-8.085 20.508-8.311 28.258-7.077 31.15 0.418 0.977 1 1.313 1.513 1.51 0.357 0.141 1.549 0.429 4.795 0.108 2.117-0.21 3.989-0.581 4.009-0.582l0.516-0.1 16.649 6.906-0.01 1.252c-9e-3 0.952 0.124 23.487 24.483 33.603 12.878 5.342 28.776 5.149 39.846 4.049 11.472-1.144 19.991-3.451 20.074-3.472l0.58-0.159z"/>
<path d="m191.53 13.632c-0.725-0.183-2.452-0.291-8.809-0.291-2.198 0-4.709 0.01-7.377 0.028-3.02 0.011-6.25 0.03-9.475 0.03-5.525 0-13.265-0.045-18.498-0.393-7.758-5.832-16.961-9.106-27.168-9.414-21.763-0.666-40.881 8.633-51.21 24.858-3.972 3.917-11.601 8.257-14.167 8.832-1.188 0.264-2.085 1.06-2.398 2.127-0.319 1.083 0.021 2.267 0.914 3.168 0.814 0.819 2.509 1.848 5.904 1.848 1.825 0 4.147-0.302 7.086-1.09 1.099 2.498 3 4.089 4.546 4.776 3.694 1.64 15.705-3.118 20.444-9.686 3.664 1.94 7.471 2.685 11.333 2.678-2.673 1.217-5.116 2.718-7.157 4.51-4.903 4.314-5.09 7.841-4.391 10.042 0.996 3.125 4.489 5.441 8.891 5.902 2.871 0.302 6.557-0.517 10.828-1.464 5.627-1.247 12.016-2.66 17.363-1.556 7.955 1.646 13.491 6.065 21.517 13.254l4.169 3.748c0.276 0.231 0.609 0.355 0.952 0.355 0.407 0 0.814-0.169 1.112-0.493 0.556-0.619 0.505-1.564-0.104-2.121l-1.189-1.073c-9.728-8.796-16.158-14.607-25.847-16.61-5.983-1.239-12.701 0.253-18.624 1.568-3.845 0.853-7.475 1.656-9.862 1.408-3.17-0.337-5.723-1.876-6.346-3.836-0.611-1.902 0.638-4.348 3.518-6.877 8.383-7.374 23.959-9.597 35.456-5.062 0.772 0.308 1.638-0.071 1.948-0.842 0.304-0.771-0.077-1.646-0.847-1.948-4.671-1.843-9.976-2.646-15.264-2.508 0.21-0.358 0.276-0.792 0.144-1.216-0.253-0.793-1.094-1.225-1.887-0.975-8 2.559-17.22 4.863-25.428-0.184-0.348-0.215-0.772-0.272-1.167-0.169-0.396 0.103-0.732 0.367-0.933 0.725-3.496 6.35-15.524 10.521-17.409 9.679-1.118-0.496-2.657-1.855-3.334-4.066-0.919-3.038 0-6.872 2.657-11.087 9.727-15.413 27.929-24.245 48.692-23.618 8.357 0.255 16.004 2.643 22.666 6.905-0.432 0.286-0.747 0.672-0.929 1.167-0.22 0.617-0.896 2.483 4.016 6.575l0.363 0.307c4.444 3.786 8.477 6.367 12.058 8.11 2.388 3.873 4.453 8.187 6.126 12.924 7.64 21.578 9.71 72.4-13.771 88.557-12.397 8.535-24.048 9.981-30.651 9.965 0.55-1.3 0.924-2.543 1.111-3.588 1.95-6.189 2.554-11.532-0.018-20.341-0.113-0.4-0.267-0.868-0.456-1.364 4.901-9.738 13.557-12.009 18.299-12.488 6.519-0.66 13.122 1.294 15.71 4.645 0.506 0.658 1.453 0.775 2.103 0.267 0.66-0.499 0.777-1.446 0.269-2.102-0.931-1.2-2.229-2.249-3.773-3.125l-2.757-1.277c-3.456-1.277-7.647-1.822-11.85-1.397-8.304 0.842-15.279 5.2-19.527 12.072-3.12-6.096-9.16-14.107-15.81-14.107-1.618 0-3.16 0.479-4.58 1.425-7.399 4.929-5.298 13.693-3.45 21.428 0.495 2.073 0.97 4.033 1.249 5.858 0.341 2.219 0.248 4.919 0.166 7.532-0.178 5.174-0.353 10.526 2.701 13.677 1.591 1.64 3.869 2.477 6.777 2.477 6.007 0 9.897-3.13 12.226-6.631 0.533 0.023 1.094 0.033 1.71 0.033 3.868 0 9.321-0.484 15.604-2.398-9.387 14.574-27.029 25.419-42.443 25.716-5.53 0.115-13.019-1.227-17.145-8.159-5.006-8.413-13.003-11.441-18.299-10.068-4.177 1.072-6.662 4.521-6.821 9.457-0.131 4.11 2.954 9.05 8.477 13.56 7.26 5.925 18.696 10.921 30.366 10.921 2.894 0 5.81-0.308 8.671-0.985 25.447-6.024 48.174-26.523 54.294-48.866 13.763-9.828 18.145-29.358 19.382-44.098 1.579-18.795-1.336-37.451-4.929-47.602-1.27-3.586-2.767-6.931-4.435-10.051 3.345 1.116 6.161 1.479 8.372 1.479 1.993 0 3.918-0.274 5.747-0.819 11.702-3.511 16.596-12.159 16.514-15.796-0.032-1.43-0.752-2.458-1.916-2.752zm-126 26.818c-6.708 1.787-9.19 0.632-9.796 0.226-0.335-0.226-0.421-0.393-0.432-0.393 0 0 0.042-0.042 0.182-0.077 2.25-0.498 6.671-2.833 10.596-5.56-0.675 2.306-0.754 4.246-0.55 5.804zm51.728 95.986c-0.03 0.082-0.051 0.169-0.062 0.259-0.077 0.409-1.886 10.002-11.031 10.002-1.81 0-3.085-0.411-3.906-1.254-1.871-1.937-1.722-6.426-1.58-10.767 0.096-2.795 0.194-5.684-0.207-8.274-0.302-1.986-0.814-4.123-1.31-6.18-1.991-8.329-2.948-14.023 1.778-17.171 0.758-0.506 1.532-0.753 2.36-0.753 5.396 0 12.46 10.627 13.945 15.976 2.318 7.95 1.794 12.514 0.013 18.162zm-19.444 42.787c-13.396 3.172-27.959-2.407-36.443-9.339-4.721-3.855-7.483-8.019-7.378-11.144 0.114-3.56 1.738-5.923 4.571-6.652 4.226-1.084 10.724 1.555 14.977 8.701 3.791 6.372 10.769 9.766 19.775 9.618 17.44-0.33 37.541-13.33 46.791-30.247 2.821-1.116 5.761-2.544 8.758-4.337-7.086 20.026-27.889 37.919-51.051 43.4zm91.842-160.16c-1.764 3.511-6.262 8.049-13.584 10.245-1.541 0.461-3.179 0.695-4.882 0.695-4.741 0-12.585-1.865-23.012-10.747l-0.384-0.325c-1.53-1.275-2.494-2.399-2.884-3.036 0.262-0.023 0.678-0.023 1.139 0.016 5.305 0.43 13.859 0.48 19.83 0.48 3.232 0 6.465-0.016 9.492-0.026 2.662-0.019 5.162-0.03 7.359-0.03 4.138 0 6.724 0.049 7.726 0.148-2e-3 0.409-0.14 1.27-0.8 2.58z"/>
<path d="m164.42 42.578c-1.673-4.735-3.738-9.052-6.126-12.924-3.581-1.745-7.614-4.325-12.058-8.11l-0.363-0.307c-4.912-4.093-4.236-5.958-4.016-6.575 0.182-0.494 0.494-0.88 0.929-1.167-6.662-4.264-14.309-6.652-22.666-6.905-20.764-0.628-38.966 8.204-48.692 23.624-2.657 4.215-3.575 8.049-2.657 11.087 0.678 2.211 2.217 3.57 3.334 4.066 1.887 0.842 13.913-3.329 17.409-9.679 0.201-0.358 0.538-0.624 0.933-0.725 0.396-0.104 0.819-0.045 1.167 0.169 8.208 5.045 17.428 2.741 25.428 0.184 0.792-0.25 1.633 0.182 1.887 0.975 0.132 0.423 0.066 0.856-0.144 1.216 5.288-0.138 10.593 0.666 15.264 2.508 0.77 0.302 1.151 1.177 0.847 1.948-0.31 0.771-1.176 1.149-1.948 0.842-11.499-4.535-27.075-2.311-35.456 5.062-2.879 2.529-4.129 4.973-3.518 6.877 0.624 1.96 3.174 3.499 6.346 3.836 2.388 0.248 6.016-0.557 9.862-1.408 5.923-1.316 12.641-2.807 18.624-1.569 9.689 2.003 16.121 7.813 25.847 16.61l1.189 1.073c0.609 0.557 0.658 1.503 0.104 2.121-0.298 0.32-0.707 0.489-1.112 0.489-0.341 0-0.676-0.124-0.952-0.355 3.913 1.768 10.089 1.176 10.089 5.419 0 5.083 0.308 14.655-4.388 24.968 0 0-1.394 1.158-2.404 0.46 0.507 0.655 0.23 1.343-0.43 1.843-0.648 0.506-1.597 0.391-2.103-0.267-2.589-3.351-9.193-5.305-15.71-4.645-4.743 0.48-13.398 2.749-18.299 12.488 0.187 0.494 0.34 0.964 0.456 1.364 2.571 8.809 1.967 14.152 0.019 20.341-0.188 1.044-0.562 2.288-1.113 3.588 6.601 0.016 18.256-1.431 30.651-9.965 23.48-16.157 21.412-66.977 13.77-88.557" fill="#FFD200"/>
<path d="m88.16 27.75c-2.388 1.789-1.666 4 0.998 4.33 2.669 0.337 2.875 0.512 5.335-1.329 2.669-2.004 3.001-5.331 0-5.003-2.997 0.335-5.002 1.001-6.333 2.002"/>
<path d="m81.156 29.081c0 1.656-1.341 2.999-2.998 2.999-1.656 0-3.004-1.343-3.004-2.999s1.349-2.998 3.004-2.998c1.656 0 2.998 1.342 2.998 2.998"/>
<path d="m115.83 20.752c0 1.658-1.343 2.999-3.006 2.999-1.656 0-2.998-1.341-2.998-2.999 0-1.656 1.341-3 2.998-3 1.663 1e-3 3.006 1.344 3.006 3"/>
<path d="m117.77 120.23c-0.02-0.066-0.03-0.128-0.045-0.187-0.142-0.571-0.302-1.16-0.479-1.766-1.485-5.347-8.549-15.978-13.945-15.978-0.828 0-1.604 0.248-2.36 0.754-4.729 3.148-3.77 8.841-1.778 17.171 0.496 2.058 1.008 4.194 1.31 6.18 0.402 2.59 0.302 5.478 0.207 8.274-0.142 4.341-0.29 8.83 1.58 10.767 0.821 0.844 2.096 1.254 3.906 1.254 0.522 0 1.013-0.037 1.492-0.1 0.142-0.016 0.28-0.044 0.418-0.066 0.335-0.054 0.653-0.121 0.962-0.197 0.136-0.037 0.274-0.077 0.407-0.114 0.325-0.101 0.632-0.209 0.924-0.337 0.091-0.037 0.184-0.066 0.266-0.105 0.379-0.176 0.743-0.369 1.081-0.578 0.035-0.016 0.066-0.042 0.101-0.066 0.297-0.19 0.583-0.396 0.853-0.609 0.077-0.062 0.154-0.128 0.23-0.194 0.22-0.185 0.43-0.379 0.634-0.575 0.066-0.066 0.133-0.132 0.197-0.204 0.227-0.236 0.435-0.479 0.634-0.72 0.028-0.033 0.049-0.06 0.072-0.089 0.226-0.28 0.423-0.559 0.617-0.847 0.044-0.072 0.082-0.138 0.126-0.203 0.132-0.21 0.258-0.425 0.38-0.632 0.054-0.1 0.112-0.198 0.165-0.302 0.087-0.173 0.178-0.341 0.26-0.517 0.047-0.106 0.104-0.215 0.154-0.321 0.066-0.149 0.125-0.292 0.185-0.434 0.128-0.304 0.237-0.594 0.332-0.857 5e-3 -0.016 0.018-0.033 0.018-0.044 0.066-0.19 0.126-0.374 0.182-0.545 0.226-0.737 0.332-1.254 0.346-1.341 0.01-0.089 0.033-0.177 0.061-0.259 1.495-4.742 2.101-8.734 0.88-14.608-0.114-0.521-0.238-1.062-0.373-1.605" fill="#FFD200"/>
<path d="m65.527 40.45c-6.708 1.787-9.19 0.632-9.796 0.226-0.335-0.226-0.421-0.393-0.432-0.393 0 0 0.042-0.042 0.182-0.077 2.25-0.498 6.671-2.833 10.596-5.56-0.675 2.306-0.754 4.246-0.55 5.804z" fill="#f80"/>
<path d="m36.043 104.04c-1.513 1.86-2.019 4.474-1.42 7.368 1.53 7.382 14.657 21.704 23.548 23.833 0.681 0.166 1.298 0.248 1.832 0.248 1.384 0 1.901-0.545 2.173-0.952 1.081-1.656 0.468-5.265-0.399-7.23-2.459-5.623-10.259-20.367-14.205-23.4-1.986-1.526-4.121-2.337-6.184-2.337-2.148 2e-3 -4.054 0.882-5.345 2.47" fill="#FFD200"/>
<path d="m60.004 138.48c-0.772 0-1.625-0.11-2.531-0.323-10.146-2.439-24.034-17.662-25.788-26.146-0.786-3.796-0.066-7.3 2.03-9.871 1.85-2.272 4.65-3.577 7.675-3.577 2.727 0 5.497 1.023 8.014 2.96 4.938 3.796 13.315 20.446 15.125 24.57 0.753 1.722 2.247 6.879 0.154 10.081-0.686 1.052-2.061 2.306-4.679 2.306zm-18.614-36.915c-2.15 0-4.056 0.88-5.347 2.47-1.513 1.86-2.019 4.473-1.42 7.368 1.53 7.382 14.657 21.704 23.548 23.833 0.681 0.166 1.298 0.248 1.832 0.248 1.384 0 1.901-0.545 2.173-0.952 1.081-1.656 0.468-5.265-0.399-7.23-2.459-5.623-10.259-20.368-14.205-23.4-1.984-1.528-4.119-2.337-6.182-2.337z"/>
</svg>
