<svg xmlns="http://www.w3.org/2000/svg" height="1333.333" width="1333.333"><path d="M1333.333 1333.333H0V0h1333.333z" fill="#fff"/><path d="M666.667 222.222c-245.46 0-444.444 198.984-444.444 444.444s198.984 444.446 444.444 444.446 444.444-198.986 444.444-444.446c0-245.46-198.984-444.444-444.444-444.444m0 26.667c56.412 0 111.12 11.043 162.609 32.82a417.854 417.854 0 0170.956 38.513 420.901 420.901 0 0161.848 51.03 420.97 420.97 0 0151.03 61.849 417.76 417.76 0 0138.514 70.956c21.779 51.488 32.82 106.199 32.82 162.61 0 56.411-11.041 111.12-32.82 162.609a417.76 417.76 0 01-38.513 70.956 420.901 420.901 0 01-51.031 61.848 420.901 420.901 0 01-61.848 51.03 417.76 417.76 0 01-70.956 38.514c-51.488 21.778-106.197 32.82-162.61 32.82-56.41 0-111.12-11.042-162.609-32.82a417.76 417.76 0 01-70.956-38.514 420.97 420.97 0 01-61.848-51.03 420.901 420.901 0 01-51.03-61.848 417.854 417.854 0 01-38.514-70.956c-21.777-51.488-32.82-106.198-32.82-162.61 0-56.41 11.043-111.121 32.82-162.61a417.854 417.854 0 0138.514-70.955 420.97 420.97 0 0151.03-61.848 420.97 420.97 0 0161.848-51.03 417.854 417.854 0 0170.956-38.514c51.488-21.777 106.199-32.82 162.61-32.82" fill="#32373c"/><path d="M991.679 488.977c1.59 11.794 2.49 24.449 2.49 38.08 0 37.57-7.04 79.82-28.173 132.654L852.878 986.774c110.11-64.195 184.16-183.487 184.16-320.121 0-64.392-16.456-124.928-45.36-177.676M673.175 699.049l-111.142 322.897c33.192 9.765 68.283 15.09 104.635 15.09 43.13 0 84.505-7.443 122.999-20.998-.991-1.584-1.904-3.267-2.658-5.104zm243.524-51.075c0-45.787-16.447-77.477-30.532-102.14-18.776-30.523-36.383-56.345-36.383-86.867 0-34.04 25.815-65.73 62.196-65.73 1.644 0 3.2.197 4.796.298-65.895-60.376-153.687-97.238-250.108-97.238-129.399 0-243.228 66.393-309.455 166.929 8.696.276 16.89.45 23.836.45 38.73 0 98.714-4.709 98.714-4.709 19.954-1.17 22.313 28.163 2.368 30.522 0 0-20.071 2.35-42.386 3.518l134.867 401.179 81.063-243.08-57.7-158.099c-19.955-1.168-38.846-3.518-38.846-3.518-19.965-1.18-17.626-31.691 2.35-30.522 0 0 61.15 4.708 97.54 4.708 38.732 0 98.724-4.708 98.724-4.708 19.965-1.17 22.314 28.163 2.36 30.522 0 0-20.091 2.35-42.387 3.518L851.563 891.13l38.208-121.068c16.975-52.91 26.927-90.397 26.927-122.088m-620.402 18.679c0 146.593 85.187 273.29 208.747 333.318L328.367 515.926c-20.55 46.057-32.07 97.03-32.07 150.727" fill="#32373c"/></svg>