<svg aria-label="WordPress Meetup Frankfurt" xmlns="http://www.w3.org/2000/svg" xmlns:xlink="http://www.w3.org/1999/xlink" width="500" height="346" viewBox="0 0 500 346"><defs><path id="a" d="M-221.441-50h901.433v450.72h-901.433z"/></defs><clipPath id="b"><use xlink:href="#a" overflow="visible"/></clipPath><path clip-path="url(#b)" fill="#FFF" d="M157.123 327.743a4.314 4.314 0 01-3.897-2.479L15.113 29.079a4.261 4.261 0 01-.142-3.28 4.262 4.262 0 012.217-2.423 4.264 4.264 0 011.808-.4c1.666 0 3.194.973 3.897 2.477l129.938 278.655V27.267c0-.119.01-.234.024-.351a3.314 3.314 0 01.128-.748c.05-.184.099-.341.159-.494.034-.083.073-.168.115-.254.079-.167.171-.336.278-.501l.044-.067.084-.11a3.78 3.78 0 01.409-.488l.101-.097c.173-.164.347-.306.536-.434l.072-.05.06-.035a3.73 3.73 0 01.463-.263l.143-.066s.19-.062.225-.072c.143-.055.346-.121.552-.164.096-.021.201-.037.306-.047.107-.016.227-.03.35-.039l.062-.01.181-.001c.135 0 .266.012.397.029.105.006.226.02.347.042.177.031.356.08.534.134.071.021.147.045.221.073.209.08.389.167.565.264.048.025.115.062.183.102.177.11.338.231.495.363.048.037.107.087.165.139.155.143.305.307.454.497l.06.069.038.055c.198.266.369.567.5.882L290.95 304.089V27.267a4.297 4.297 0 014.292-4.292l58.456-.003c49.704 0 90.142 40.437 90.142 90.14 0 49.704-40.438 90.141-90.142 90.141h-23.726V323.45a4.3 4.3 0 01-4.293 4.293 4.3 4.3 0 01-4.295-4.293V198.96a4.298 4.298 0 014.295-4.293h28.019c44.971 0 81.557-36.585 81.557-81.555 0-44.969-36.586-81.554-81.557-81.554h-54.164v291.884c0 .121-.009.235-.025.352-.01.146-.024.282-.049.42a5.422 5.422 0 01-.228.799c-.049.118-.09.207-.135.296a4.17 4.17 0 01-.254.458l-.048.077-.098.131a4.516 4.516 0 01-.386.46l-.061.062-.102.09c-.137.13-.301.266-.48.391l-.077.052-.146.087a3.078 3.078 0 01-.391.218l-.137.063-.277.094c-.17.06-.32.105-.475.141a3.513 3.513 0 01-.382.06l-.308-2.125.23 2.135c-.068.009-.285.033-.285.033l-.185.004c-.152 0-.302-.016-.449-.033a3.811 3.811 0 01-.237-.029 4.572 4.572 0 01-.66-.166l-.132-.044a4.055 4.055 0 01-.644-.304l-.096-.051a4.527 4.527 0 01-.571-.418l-.056-.045-.037-.036a3.963 3.963 0 01-.463-.496l-.088-.109a4.164 4.164 0 01-.529-.926L161.416 46.621v276.822c0 .188-.016.351-.035.496v.11l-.047.188a4.27 4.27 0 01-.159.591c0 .002-.02.064-.043.128a4.066 4.066 0 01-.236.507 3.794 3.794 0 01-.156.278 3.534 3.534 0 01-.184.26 4.419 4.419 0 01-.369.439l-.063.063-.076.067c-.137.13-.274.244-.417.349l-.083.068-.107.062a3.813 3.813 0 01-.502.287 4.247 4.247 0 01-1.816.407m115.121-121.419a4.312 4.312 0 01-3.896-2.477l-81.496-174.77a4.296 4.296 0 012.076-5.704 4.26 4.26 0 011.807-.4c1.667 0 3.195.973 3.897 2.477l81.495 174.768a4.297 4.297 0 01-3.883 6.106m-138.119 0a4.315 4.315 0 01-3.897-2.477L48.733 29.079a4.257 4.257 0 01-.142-3.28 4.268 4.268 0 012.217-2.423c.57-.265 1.178-.4 1.808-.4 1.665 0 3.194.973 3.896 2.477l81.496 174.768c1 2.146.071 4.703-2.075 5.703-.572.265-1.181.4-1.808.4m191.555-37.409a4.299 4.299 0 01-4.294-4.292V55.167a4.298 4.298 0 014.294-4.292h30.045c33.201 0 60.215 26.957 60.215 60.092 0 2.367-1.926 4.292-4.293 4.292s-4.293-1.926-4.293-4.292v-.133c-.075-28.338-23.154-51.374-51.508-51.374h-25.875l.002 105.162a4.3 4.3 0 01-4.293 4.293"/><defs><path id="c" d="M-221.441-50h901.433v450.72h-901.433z"/></defs><clipPath id="d"><use xlink:href="#c" overflow="visible"/></clipPath><path clip-path="url(#d)" fill="#FFF" d="M192.686 26.36l81.496 174.766a2.156 2.156 0 01-1.037 2.854 2.153 2.153 0 01-2.852-1.039L188.796 28.173a2.152 2.152 0 011.038-2.852 2.154 2.154 0 012.852 1.039M51.715 25.321a2.152 2.152 0 00-1.037 2.852l81.496 174.769a2.152 2.152 0 002.851 1.039 2.156 2.156 0 001.038-2.854L54.567 26.36a2.153 2.153 0 00-2.852-1.039M323.533 323.45a2.146 2.146 0 104.292 0V201.105h25.872c48.521 0 87.995-39.474 87.995-87.994 0-48.519-39.476-87.994-87.995-87.994l-58.455.001v.001a2.151 2.151 0 00-2.146 2.146V313.77L159.114 26.482a2.168 2.168 0 00-.271-.484l-.043-.051a2.17 2.17 0 00-.228-.251c-.026-.023-.055-.044-.082-.067a2.084 2.084 0 00-.246-.182c-.03-.02-.065-.035-.096-.052a1.994 1.994 0 00-.272-.129c-.038-.015-.079-.025-.12-.038a1.95 1.95 0 00-.268-.07c-.064-.011-.129-.014-.193-.02-.058-.005-.113-.018-.171-.018-.014 0-.027.004-.042.005-.092 0-.183.014-.275.028-.045.006-.091.008-.136.017a2.134 2.134 0 00-.304.095c-.03.012-.061.02-.09.032-.022.009-.044.012-.065.022-.089.042-.166.095-.246.147-.017.01-.034.018-.05.029-.102.07-.194.148-.281.231-.012.011-.024.021-.035.033-.08.082-.15.169-.214.26-.018.024-.037.046-.054.071a2.184 2.184 0 00-.136.252c-.021.043-.043.084-.062.128-.03.076-.051.155-.073.234-.016.057-.034.114-.044.173-.015.079-.02.159-.024.239-.004.05-.015.098-.015.149v286.52L20.947 26.358a2.155 2.155 0 00-2.852-1.038 2.153 2.153 0 00-1.038 2.852L155.171 324.36a2.151 2.151 0 002.851 1.036c.103-.047.195-.106.286-.169l.015-.009c.097-.065.184-.142.268-.222.02-.021.041-.034.06-.055a1.85 1.85 0 00.17-.207c.036-.046.072-.091.103-.139.031-.05.055-.099.082-.147.042-.08.083-.161.117-.246.009-.023.014-.05.023-.073.038-.11.069-.224.088-.343v-.008c.02-.11.035-.222.035-.337V36.94L293.25 324.221a1.904 1.904 0 00.297.52c.078.101.161.192.256.277.016.016.033.027.049.043.088.075.182.146.28.206a.29.29 0 00.058.03c.101.06.203.107.312.149.022.008.045.014.067.021.104.034.213.065.322.083.043.008.084.008.127.013.074.01.147.024.225.024.018 0 .035-.007.053-.008.066 0 .135-.013.202-.021.069-.01.142-.013.208-.026.081-.02.157-.049.236-.074.053-.02.106-.032.156-.055.02-.01.039-.013.055-.021.074-.035.139-.081.207-.122.031-.021.064-.037.098-.06.09-.062.171-.132.249-.204.021-.021.045-.038.065-.062.072-.073.134-.151.192-.234.024-.031.052-.062.071-.096.047-.073.087-.149.125-.229.023-.049.051-.098.068-.148a1.69 1.69 0 00.07-.219c.018-.061.036-.122.049-.186.012-.077.019-.154.022-.233.004-.05.015-.1.015-.15V29.412h56.312c46.154 0 83.702 37.548 83.702 83.7 0 46.153-37.548 83.701-83.702 83.701h-28.02a2.145 2.145 0 00-2.146 2.146V323.45h.003zm0-158.828a2.146 2.146 0 104.291 0l-.002-.011V57.314h28.021c29.582 0 53.649 24.063 53.655 53.644l-.001.009a2.147 2.147 0 004.292 0c0-31.951-25.995-57.947-58.069-57.947h-30.044a2.145 2.145 0 00-2.146 2.146v109.456h.003z"/><g><defs><path id="e" d="M-221.441-50h901.433v450.72h-901.433z"/></defs><clipPath id="f"><use xlink:href="#e" overflow="visible"/></clipPath><path clip-path="url(#f)" fill="#FFF" d="M356.723 327.798c-1.384 0-2.553-.586-3.289-1.649-.699-1.084-.82-1.93-.82-3.222V275.93c0-.744 0-2.127 1.177-3.3 1.172-1.174 2.555-1.174 3.297-1.174h26.858c1.187 0 2.158.129 3.049.75l.08.062c1 .77 1.527 1.834 1.527 3.08 0 1.248-.527 2.312-1.527 3.082l-.08.059c-.891.625-1.862.751-3.049.751h-23.112v17.008h19.043c1.187 0 2.158.127 3.05.751l.077.057c1 .77 1.526 1.834 1.526 3.082 0 1.25-.526 2.313-1.526 3.083l-.073.056c-.893.625-1.865.754-3.054.754h-19.043v18.898c0 1.294-.12 2.14-.778 3.159-.779 1.123-1.947 1.71-3.333 1.71"/></g><g><defs><path id="g" d="M-221.441-50h901.433v450.72h-901.433z"/></defs><clipPath id="h"><use xlink:href="#g" overflow="visible"/></clipPath><path clip-path="url(#h)" fill="#FFF" d="M430.964 327.798c-2.397 0-3.501-1.93-3.972-2.753l-12.246-21.381h-10.749v19.263c0 1.294-.12 2.14-.779 3.159-.774 1.125-1.942 1.712-3.331 1.712-1.383 0-2.553-.586-3.289-1.649-.699-1.084-.818-1.93-.818-3.222V275.93c0-.744 0-2.125 1.176-3.3 1.172-1.174 2.553-1.174 3.297-1.174h17.373c10.154 0 16.978 6.442 16.978 16.03 0 7.584-3.979 13.146-10.795 15.362l10.329 18.104c.468.816.9 1.729.9 2.845 0 1.439-.764 2.725-2.047 3.438-.654.363-1.373.563-2.027.563m-13.849-31.916c4.229 0 9.267-1.442 9.267-8.321 0-6.877-5.038-8.322-9.267-8.322h-13.118v16.645l13.118-.002z"/></g><g><defs><path id="i" d="M-221.441-50h901.433v450.72h-901.433z"/></defs><clipPath id="j"><use xlink:href="#i" overflow="visible"/></clipPath><path clip-path="url(#j)" fill="#FFF" d="M480.896 327.797a3.939 3.939 0 01-2.08-.615l-.085-.057c-1.029-.71-1.44-1.6-1.865-2.687l-3.594-9.508h-20.806l-3.584 9.479c-.436 1.113-.843 2-1.876 2.714l-.084.057a3.948 3.948 0 01-2.082.615c-1.142 0-2.237-.439-3.007-1.207-1.254-1.256-1.464-2.972-.626-5.104l17.36-46.489c.356-.953.611-1.541 1.016-2.116a3.95 3.95 0 013.284-1.715c1.332 0 2.532.629 3.29 1.724.399.569.653 1.158 1.011 2.104l17.373 46.524c.824 2.101.614 3.815-.637 5.067-.771.773-1.865 1.214-3.008 1.214m-10.441-20.649l-7.587-20.896-7.587 20.896h15.174z"/></g></svg>